<svg width="249" height="40" viewBox="0 0 249 40" fill="none" xmlns="http://www.w3.org/2000/svg">
<g clip-path="url(#clip0_667_27)">
<path d="M39.2001 32C45.8275 32 51.2001 26.6274 51.2001 20C51.2001 13.3726 45.8275 8 39.2001 8C32.9802 8 27.8656 12.7321 27.2601 18.7925C24.8084 17.6836 22.1597 17.0209 19.4473 16.8465C20.9595 7.29911 29.2274 0 39.2001 0C50.2458 0 59.2001 8.95431 59.2001 20C59.2001 30.6428 50.887 39.344 40.4 39.9646V40H27.2195V38.2545C27.2195 35.987 26.2844 33.7821 24.5705 32.1336C22.8517 30.4804 20.4908 29.5273 18 29.5273C15.5092 29.5273 13.1483 30.4804 11.4295 32.1336C9.71564 33.7821 8.78049 35.987 8.78049 38.2545V40H0V38.2118C0 33.5371 1.94004 29.0906 5.33341 25.8398C8.61822 22.693 13.0047 20.9102 17.5711 20.805C17.7139 20.8017 17.8569 20.8 18 20.8C18.1108 20.8 18.2215 20.801 18.3322 20.803C22.9333 20.8851 27.3586 22.6707 30.6666 25.8398C32.4991 27.5953 33.9078 29.6995 34.8159 32H39.2001Z" fill="white"/>
<path d="M21.6768 34.9241C22.6519 35.7721 23.1998 36.9223 23.1998 38.1216V39.9996H12.7998V38.1216C12.7998 36.9223 13.3477 35.7721 14.3228 34.9241C15.298 34.076 16.6207 33.5996 17.9998 33.5996C19.3789 33.5996 20.7016 34.076 21.6768 34.9241Z" fill="white"/>
<path d="M43.7818 18.0361C42.3358 18.0361 41.1637 16.864 41.1637 15.418V14.7634C41.1637 13.679 40.2845 12.7998 39.2 12.7998C38.1155 12.7998 37.2364 13.6789 37.2364 14.7634V15.418C37.2364 16.864 36.0642 18.0361 34.6182 18.0361H33.9636C32.8792 18.0361 32 18.9153 32 19.9998C32 21.0843 32.8792 21.9634 33.9636 21.9634H34.6182C36.0642 21.9634 37.2364 23.1356 37.2364 24.5816V25.2362C37.2364 26.3207 38.1155 27.1998 39.2 27.1998C40.2845 27.1998 41.1637 26.3207 41.1637 25.2362V24.5816C41.1637 23.1356 42.3358 21.9634 43.7818 21.9634H44.4364C45.5209 21.9634 46.4 21.0843 46.4 19.9998C46.4 18.9153 45.5209 18.0361 44.4364 18.0361H43.7818Z" fill="white"/>
<path d="M11.2001 3.20004C11.2001 4.96732 12.6328 6.39999 14.4001 6.39999H15.2C16.5255 6.39999 17.6 7.47451 17.6 8.79999C17.6 10.1255 16.5255 11.2 15.2 11.2H14.4001C12.6328 11.2 11.2001 12.6327 11.2001 14.3999V15.2C11.2001 16.5255 10.1256 17.6 8.80011 17.6C7.47463 17.6 6.40011 16.5255 6.40011 15.2V14.4C6.40011 12.6327 4.96742 11.2 3.20011 11.2H2.4C1.07452 11.2 0 10.1255 0 8.79999C0 7.47451 1.07452 6.39999 2.4 6.39999H3.20012C4.96742 6.39999 6.40011 4.96731 6.40011 3.2V2.4C6.40011 1.07452 7.47463 0 8.80011 0C10.1256 0 11.2001 1.07452 11.2001 2.4V3.20004Z" fill="white"/>
<path d="M239.278 13.2393C245.287 13.2393 248.187 17.4372 248.187 22.2997V31.4299H241.898V23.3841C241.898 21.1802 241.095 19.3612 238.789 19.3612C236.483 19.3612 235.714 21.1802 235.714 23.3841V31.4299H229.425V23.3841C229.425 21.1802 228.656 19.3612 226.35 19.3612C224.044 19.3612 223.241 21.1802 223.241 23.3841V31.4299H216.951V22.2997C216.951 17.4372 219.851 13.2393 225.861 13.2393C229.145 13.2393 231.521 14.5337 232.604 16.6676C233.757 14.5337 236.273 13.2393 239.278 13.2393Z" fill="white"/>
<path d="M205.65 25.8323C207.677 25.8323 208.55 23.9783 208.55 21.7744V13.9385H214.839V22.544C214.839 27.6864 211.834 31.9542 205.65 31.9542C199.466 31.9542 196.461 27.6864 196.461 22.544V13.9385H202.75V21.7744C202.75 23.9783 203.624 25.8323 205.65 25.8323Z" fill="white"/>
<path d="M187.213 31.9893C183.265 31.9893 180.715 30.625 179.212 27.9663L183.754 25.4126C184.383 26.5321 185.327 27.0918 186.899 27.0918C188.192 27.0918 188.786 26.637 188.786 26.0773C188.786 23.9434 179.562 26.1123 179.562 19.3258C179.562 16.0375 182.357 13.3789 187.109 13.3789C191.266 13.3789 193.538 15.4078 194.551 17.3668L190.009 19.9555C189.624 18.906 188.436 18.2763 187.248 18.2763C186.34 18.2763 185.851 18.6611 185.851 19.1859C185.851 21.3547 195.075 19.3608 195.075 25.9374C195.075 29.6105 191.476 31.9893 187.213 31.9893Z" fill="white"/>
<path d="M165.241 39.4757H158.952V22.6494C158.952 17.2971 162.97 13.4141 168.56 13.4141C174.01 13.4141 178.168 17.577 178.168 22.6494C178.168 28.2465 174.465 31.9546 168.909 31.9546C167.617 31.9546 166.324 31.5698 165.241 30.9751V39.4757ZM168.56 26.0426C170.551 26.0426 171.879 24.5034 171.879 22.6844C171.879 20.8303 170.551 19.3261 168.56 19.3261C166.568 19.3261 165.241 20.8303 165.241 22.6844C165.241 24.5034 166.568 26.0426 168.56 26.0426Z" fill="white"/>
<path d="M152.652 12.0844C150.59 12.0844 148.878 10.3703 148.878 8.30637C148.878 6.24244 150.59 4.52832 152.652 4.52832C154.713 4.52832 156.425 6.24244 156.425 8.30637C156.425 10.3703 154.713 12.0844 152.652 12.0844ZM149.507 13.9385H155.796V31.4294H149.507V13.9385Z" fill="white"/>
<path d="M137.441 31.9543C131.99 31.9543 127.832 27.7564 127.832 22.6491C127.832 17.5767 131.99 13.3789 137.441 13.3789C142.891 13.3789 147.049 17.5767 147.049 22.6491C147.049 27.7564 142.891 31.9543 137.441 31.9543ZM137.441 26.0423C139.432 26.0423 140.76 24.5031 140.76 22.6841C140.76 20.83 139.432 19.2908 137.441 19.2908C135.449 19.2908 134.121 20.83 134.121 22.6841C134.121 24.5031 135.449 26.0423 137.441 26.0423Z" fill="white"/>
<path d="M115.957 40.0004C111.624 40.0004 108.48 38.0764 106.872 34.6482L112.078 31.8496C112.637 33.039 113.686 34.2634 115.852 34.2634C118.123 34.2634 119.625 32.8291 119.8 30.3104C118.962 31.045 117.634 31.6048 115.642 31.6048C110.786 31.6048 106.872 27.8617 106.872 22.6144C106.872 17.542 111.03 13.4141 116.481 13.4141C122.071 13.4141 126.089 17.2971 126.089 22.6494V29.5758C126.089 35.8725 121.722 40.0004 115.957 40.0004ZM116.376 25.6928C118.263 25.6928 119.695 24.3985 119.695 22.4745C119.695 20.5854 118.263 19.3261 116.376 19.3261C114.524 19.3261 113.057 20.5854 113.057 22.4745C113.057 24.3985 114.524 25.6928 116.376 25.6928Z" fill="white"/>
<path d="M96.204 31.9543C90.7535 31.9543 86.5957 27.7564 86.5957 22.6491C86.5957 17.5767 90.7535 13.3789 96.204 13.3789C101.654 13.3789 105.812 17.5767 105.812 22.6491C105.812 27.7564 101.654 31.9543 96.204 31.9543ZM96.204 26.0423C98.1956 26.0423 99.5233 24.5031 99.5233 22.6841C99.5233 20.83 98.1956 19.2908 96.204 19.2908C94.2125 19.2908 92.8848 20.83 92.8848 22.6841C92.8848 24.5031 94.2125 26.0423 96.204 26.0423Z" fill="white"/>
<path d="M75.143 7.81641V25.4823H85.555V31.4292H74.2695C70.2864 31.4292 68.6792 29.3303 68.6792 26.007V7.81641H75.143Z" fill="white"/>
</g>
<defs>
<clipPath id="clip0_667_27">
<rect width="249" height="40" fill="white"/>
</clipPath>
</defs>
</svg>
