<svg width="223" height="40" viewBox="0 0 223 40" fill="none" xmlns="http://www.w3.org/2000/svg">
<g clip-path="url(#clip0_667_15)">
<path fill-rule="evenodd" clip-rule="evenodd" d="M0 13.9535V28.8372H4.66527C5.15538 28.8372 5.6407 28.9335 6.09355 29.1205C6.5463 29.3074 6.95781 29.5815 7.3043 29.9271C7.65089 30.2726 7.92584 30.6828 8.11343 31.1342C8.3009 31.5857 8.39749 32.0695 8.39749 32.5581V37.2093H19.5941L33.59 23.2558V8.37209H28.9247C28.4346 8.37209 27.9493 8.27586 27.4964 8.08887C27.0436 7.90187 26.6322 7.62778 26.2856 7.28226C25.9391 6.93675 25.6641 6.52653 25.4765 6.0751C25.289 5.62367 25.1925 5.13981 25.1925 4.65116V0H13.9958L0 13.9535ZM15.8619 27.907H9.33054V17.6744L17.728 9.30233H24.2594V19.5349L15.8619 27.907Z" fill="white"/>
<path d="M215.132 11.3916C217.489 11.3916 219.384 12.1172 220.816 13.5683C222.272 14.9965 223 17.0005 223 19.5803V30.8097H218.148V20.2369C218.148 18.7396 217.766 17.5994 217.004 16.8163C216.242 16.01 215.202 15.607 213.885 15.607C212.568 15.607 211.517 16.01 210.731 16.8163C209.969 17.5994 209.588 18.7396 209.588 20.2369V30.8097H204.736V20.2369C204.736 18.7396 204.355 17.5994 203.592 16.8163C202.83 16.01 201.79 15.607 200.473 15.607C199.133 15.607 198.07 16.01 197.285 16.8163C196.523 17.5994 196.141 18.7396 196.141 20.2369V30.8097H191.289V11.668H196.141V13.983C196.765 13.1768 197.562 12.5433 198.532 12.0827C199.526 11.6219 200.611 11.3916 201.79 11.3916C203.292 11.3916 204.632 11.7141 205.81 12.359C206.989 12.981 207.901 13.8793 208.548 15.0541C209.172 13.9484 210.073 13.0616 211.251 12.3936C212.453 11.7256 213.747 11.3916 215.132 11.3916Z" fill="white"/>
<path d="M187.715 11.668V30.8097H182.828V28.391C182.205 29.2203 181.384 29.8768 180.368 30.3605C179.374 30.8212 178.288 31.0516 177.11 31.0516C175.608 31.0516 174.28 30.7406 173.124 30.1187C171.969 29.4737 171.057 28.5408 170.387 27.32C169.739 26.0761 169.417 24.6019 169.417 22.8974V11.668H174.268V22.2063C174.268 23.7266 174.649 24.9014 175.411 25.7306C176.175 26.5368 177.214 26.9399 178.531 26.9399C179.871 26.9399 180.922 26.5368 181.684 25.7306C182.448 24.9014 182.828 23.7266 182.828 22.2063V11.668H187.715Z" fill="white"/>
<path d="M159.265 31.1202C157.694 31.1202 156.284 30.8437 155.037 30.2909C153.789 29.715 152.795 28.9433 152.056 27.9759C151.34 27.0084 150.947 25.9374 150.878 24.7626H155.764C155.857 25.4997 156.215 26.1101 156.839 26.5938C157.486 27.0776 158.283 27.3194 159.23 27.3194C160.154 27.3194 160.871 27.1351 161.379 26.7666C161.91 26.398 162.176 25.9258 162.176 25.35C162.176 24.7281 161.853 24.2673 161.206 23.9679C160.582 23.6455 159.577 23.2999 158.19 22.9313C156.758 22.5858 155.58 22.2288 154.656 21.8603C153.755 21.4917 152.969 20.9273 152.299 20.1672C151.651 19.4071 151.329 18.382 151.329 17.0921C151.329 16.0325 151.629 15.0651 152.23 14.1897C152.853 13.3144 153.731 12.6234 154.863 12.1166C156.019 11.6098 157.37 11.3564 158.918 11.3564C161.206 11.3564 163.031 11.9324 164.394 13.0841C165.757 14.2128 166.508 15.7445 166.647 17.6795H162.003C161.934 16.9193 161.61 16.3204 161.032 15.8828C160.478 15.4221 159.727 15.1917 158.78 15.1917C157.902 15.1917 157.22 15.353 156.735 15.6755C156.273 15.9979 156.041 16.4471 156.041 17.023C156.041 17.668 156.365 18.1632 157.012 18.5087C157.659 18.8312 158.664 19.1652 160.027 19.5107C161.413 19.8563 162.557 20.2133 163.458 20.5818C164.36 20.9504 165.133 21.5262 165.781 22.3094C166.451 23.0696 166.797 24.083 166.82 25.35C166.82 26.4556 166.508 27.4461 165.884 28.3215C165.283 29.1967 164.405 29.8878 163.25 30.3946C162.118 30.8783 160.79 31.1202 159.265 31.1202Z" fill="white"/>
<path d="M134.494 14.4316C135.118 13.5563 135.973 12.8307 137.059 12.2549C138.167 11.656 139.427 11.3564 140.836 11.3564C142.476 11.3564 143.955 11.7596 145.273 12.5658C146.612 13.372 147.663 14.5237 148.426 16.021C149.212 17.4952 149.604 19.2112 149.604 21.1692C149.604 23.1271 149.212 24.8662 148.426 26.3865C147.663 27.8838 146.612 29.0471 145.273 29.8763C143.955 30.7055 142.476 31.1202 140.836 31.1202C139.427 31.1202 138.18 30.8322 137.093 30.2564C136.031 29.6804 135.164 28.9549 134.494 28.0796V39.9309H129.642V11.6674H134.494V14.4316ZM144.648 21.1692C144.648 20.0175 144.406 19.027 143.921 18.1977C143.459 17.3455 142.835 16.7005 142.049 16.2629C141.287 15.8252 140.455 15.6064 139.554 15.6064C138.676 15.6064 137.845 15.8367 137.059 16.2974C136.296 16.735 135.672 17.38 135.187 18.2323C134.725 19.0845 134.494 20.0866 134.494 21.2383C134.494 22.39 134.725 23.3921 135.187 24.2444C135.672 25.0966 136.296 25.7531 137.059 26.2137C137.845 26.6514 138.676 26.8703 139.554 26.8703C140.455 26.8703 141.287 26.6399 142.049 26.1792C142.835 25.7185 143.459 25.062 143.921 24.2097C144.406 23.3575 144.648 22.344 144.648 21.1692Z" fill="white"/>
<path d="M123.67 9.38722C122.815 9.38722 122.099 9.1223 121.522 8.59251C120.967 8.03968 120.689 7.36016 120.689 6.55395C120.689 5.74775 120.967 5.07974 121.522 4.54995C122.099 3.99712 122.815 3.7207 123.67 3.7207C124.525 3.7207 125.23 3.99712 125.784 4.54995C126.361 5.07974 126.651 5.74775 126.651 6.55395C126.651 7.36016 126.361 8.03968 125.784 8.59251C125.23 9.1223 124.525 9.38722 123.67 9.38722ZM126.061 11.6676V30.8094H121.209V11.6676H126.061Z" fill="white"/>
<path d="M108.847 31.1202C106.999 31.1202 105.336 30.717 103.857 29.9109C102.378 29.0816 101.212 27.9183 100.356 26.4211C99.525 24.9239 99.1089 23.1963 99.1089 21.2383C99.1089 19.2804 99.5362 17.5528 100.391 16.0555C101.269 14.5583 102.459 13.4066 103.961 12.6004C105.463 11.7711 107.138 11.3564 108.986 11.3564C110.835 11.3564 112.509 11.7711 114.012 12.6004C115.513 13.4066 116.691 14.5583 117.546 16.0555C118.424 17.5528 118.864 19.2804 118.864 21.2383C118.864 23.1963 118.413 24.9239 117.512 26.4211C116.634 27.9183 115.433 29.0816 113.907 29.9109C112.406 30.717 110.719 31.1202 108.847 31.1202ZM108.847 26.9048C109.725 26.9048 110.545 26.6975 111.309 26.2829C112.094 25.8452 112.717 25.2003 113.179 24.348C113.642 23.4957 113.873 22.4591 113.873 21.2383C113.873 19.4186 113.387 18.025 112.417 17.0576C111.47 16.067 110.303 15.5718 108.917 15.5718C107.531 15.5718 106.364 16.067 105.416 17.0576C104.493 18.025 104.031 19.4186 104.031 21.2383C104.031 23.058 104.48 24.4631 105.382 25.4537C106.306 26.4211 107.462 26.9048 108.847 26.9048Z" fill="white"/>
<path d="M87.9602 31.1202C86.1118 31.1202 84.4483 30.717 82.9696 29.9109C81.4909 29.0816 80.3241 27.9183 79.4693 26.4211C78.6375 24.9239 78.2217 23.1963 78.2217 21.2383C78.2217 19.2804 78.6491 17.5528 79.504 16.0555C80.3819 14.5583 81.5718 13.4066 83.0736 12.6004C84.5754 11.7711 86.2504 11.3564 88.0988 11.3564C89.9472 11.3564 91.6222 11.7711 93.1241 12.6004C94.6255 13.4066 95.804 14.5583 96.6586 16.0555C97.5367 17.5528 97.9761 19.2804 97.9761 21.2383C97.9761 23.1963 97.5255 24.9239 96.6241 26.4211C95.7461 27.9183 94.5453 29.0816 93.02 29.9109C91.5183 30.717 89.8317 31.1202 87.9602 31.1202ZM87.9602 26.9048C88.8382 26.9048 89.6583 26.6975 90.4208 26.2829C91.2063 25.8452 91.8302 25.2003 92.2922 24.348C92.7544 23.4957 92.9854 22.4591 92.9854 21.2383C92.9854 19.4186 92.5002 18.025 91.5298 17.0576C90.5825 16.067 89.4157 15.5718 88.0295 15.5718C86.6432 15.5718 85.4765 16.067 84.5291 17.0576C83.605 18.025 83.1429 19.4186 83.1429 21.2383C83.1429 23.058 83.5935 24.4631 84.4945 25.4537C85.4187 26.4211 86.5739 26.9048 87.9602 26.9048Z" fill="white"/>
<path d="M67.0729 31.1202C65.2246 31.1202 63.5611 30.717 62.0824 29.9109C60.6037 29.0816 59.4369 27.9183 58.5821 26.4211C57.7503 24.9239 57.3345 23.1963 57.3345 21.2383C57.3345 19.2804 57.7619 17.5528 58.6168 16.0555C59.4947 14.5583 60.6846 13.4066 62.1864 12.6004C63.6881 11.7711 65.3632 11.3564 67.2116 11.3564C69.0599 11.3564 70.735 11.7711 72.2368 12.6004C73.7386 13.4066 74.9169 14.5583 75.7717 16.0555C76.6497 17.5528 77.0887 19.2804 77.0887 21.2383C77.0887 23.1963 76.6382 24.9239 75.7371 26.4211C74.8591 27.9183 73.6577 29.0816 72.1328 29.9109C70.6311 30.717 68.9444 31.1202 67.0729 31.1202ZM67.0729 26.9048C67.951 26.9048 68.7711 26.6975 69.5336 26.2829C70.3191 25.8452 70.943 25.2003 71.405 24.348C71.8671 23.4957 72.0982 22.4591 72.0982 21.2383C72.0982 19.4186 71.613 18.025 70.6425 17.0576C69.6953 16.067 68.5285 15.5718 67.1423 15.5718C65.756 15.5718 64.5892 16.067 63.6419 17.0576C62.7177 18.025 62.2557 19.4186 62.2557 21.2383C62.2557 23.058 62.7063 24.4631 63.6073 25.4537C64.5315 26.4211 65.6867 26.9048 67.0729 26.9048Z" fill="white"/>
<path d="M48.7054 26.9744H56.6765V30.8095H43.8535V6.69238H48.7054V26.9744Z" fill="white"/>
<path d="M79.502 33.3803C80.731 37.0242 84.1853 39.649 88.2545 39.649H88.7608C93.8596 39.649 97.993 35.5282 97.993 30.4449V29.9248H92.9878V30.4449C92.9878 32.7723 91.0953 34.659 88.7608 34.659H88.2545C87.0647 34.659 85.9898 34.169 85.2217 33.3803H79.502Z" fill="white"/>
</g>
<defs>
<clipPath id="clip0_667_15">
<rect width="223" height="40" fill="white"/>
</clipPath>
</defs>
</svg>
