<svg width="146" height="40" viewBox="0 0 146 40" fill="none" xmlns="http://www.w3.org/2000/svg">
<g clip-path="url(#clip0_668_41)">
<path fill-rule="evenodd" clip-rule="evenodd" d="M5.63956 2.59348V0.179688H0.104004V22.4211C0.104004 32.0384 7.92629 39.835 17.5756 39.835C27.2249 39.835 35.0472 32.0384 35.0472 22.4211V0.179688H29.5116V2.59348H20.1704V0.179688H14.6348V2.59348H5.63956ZM14.6348 33.9538C9.51354 32.6605 5.71179 28.0676 5.64056 22.5781C6.23054 22.7205 6.80991 22.9085 7.37329 23.1411C8.80046 23.7303 10.0972 24.5939 11.1895 25.6826C12.2818 26.7713 13.1482 28.0637 13.7394 29.4862C14.3281 30.9028 14.6323 32.4206 14.6348 33.9538ZM15.1037 21.7813C15.9705 22.6452 16.7406 23.5964 17.4026 24.6179C18.0645 23.5964 18.8346 22.6452 19.7014 21.7813C20.5683 20.9173 21.5226 20.1498 22.5474 19.49C21.5226 18.8303 20.5683 18.0627 19.7014 17.1988C18.8346 16.3348 18.0645 15.3836 17.4026 14.3622C16.7406 15.3836 15.9705 16.3348 15.1037 17.1988C14.2369 18.0627 13.2826 18.8303 12.2577 19.49C13.2826 20.1498 14.2369 20.9173 15.1037 21.7813ZM29.5113 22.4999C29.4746 28.1471 25.4901 32.8603 20.1704 34.0357V33.9728C20.1704 32.4332 20.4746 30.9086 21.0658 29.4862C21.6569 28.0637 22.5234 26.7713 23.6157 25.6826C24.708 24.5939 26.0047 23.7303 27.4319 23.1411C28.1053 22.8631 28.8015 22.6488 29.5113 22.4999ZM14.2152 8.11072C14.0859 8.58024 13.9271 9.0422 13.7394 9.49389C13.1482 10.9163 12.2818 12.2088 11.1895 13.2975C10.0972 14.3862 8.80046 15.2498 7.37329 15.839C6.80956 16.0717 6.22985 16.2598 5.63956 16.4022V8.11072H14.2152ZM29.5116 16.4802V8.11072H20.59C20.7192 8.58024 20.878 9.0422 21.0658 9.49389C21.6569 10.9163 22.5234 12.2088 23.6157 13.2975C24.708 14.3862 26.0047 15.2498 27.4319 15.839C28.1054 16.117 28.8017 16.3314 29.5116 16.4802Z" fill="white"/>
<path d="M44.3125 3.39258V18.1108H53.6285V15.4437H47.3847V3.39258H44.3125Z" fill="white"/>
<path d="M91.2314 7.32422V18.111H94.2047V7.32422H91.2314Z" fill="white"/>
<path d="M91.2314 3.39258V6.35599H94.2047V3.39258H91.2314Z" fill="white"/>
<path fill-rule="evenodd" clip-rule="evenodd" d="M95.7856 22.0619V7.32398H98.5607V8.44302C98.8811 8.06695 99.2775 7.76636 99.7498 7.54129C100.371 7.23836 101.078 7.08691 101.871 7.08691C102.902 7.08691 103.833 7.33716 104.666 7.83764C105.498 8.33812 106.159 9.0164 106.648 9.8725C107.137 10.7154 107.381 11.6637 107.381 12.7174C107.381 13.7578 107.137 14.7062 106.648 15.5622C106.172 16.4183 105.518 17.0966 104.685 17.5971C103.853 18.0976 102.908 18.3478 101.851 18.3478C101.111 18.3478 100.424 18.2161 99.7896 17.9527C99.399 17.7787 99.0554 17.5553 98.7589 17.2824V22.0619H95.7856ZM101.494 15.6808C102.049 15.6808 102.538 15.5556 102.961 15.3054C103.384 15.0552 103.714 14.7062 103.952 14.2583C104.19 13.8105 104.309 13.2969 104.309 12.7174C104.309 12.1378 104.19 11.6308 103.952 11.1962C103.714 10.7484 103.384 10.3993 102.961 10.1491C102.538 9.88567 102.049 9.75398 101.494 9.75398C100.966 9.75398 100.49 9.87909 100.067 10.1293C99.6574 10.3796 99.3336 10.7286 99.0959 11.1764C98.871 11.6242 98.7589 12.1378 98.7589 12.7174C98.7589 13.2969 98.871 13.8105 99.0959 14.2583C99.3336 14.7062 99.6574 15.0552 100.067 15.3054C100.49 15.5556 100.966 15.6808 101.494 15.6808Z" fill="white"/>
<path d="M109.658 17.5181C110.543 18.0713 111.58 18.3478 112.77 18.3478C113.615 18.3478 114.349 18.2095 114.97 17.9329C115.591 17.6432 116.073 17.2481 116.417 16.7476C116.774 16.2471 116.952 15.661 116.952 14.9893C116.952 14.2123 116.714 13.5603 116.239 13.0335C115.763 12.4935 115.076 12.0918 114.177 11.8284L112.453 11.3147C112.188 11.2357 111.964 11.1501 111.779 11.0579C111.607 10.9657 111.481 10.8603 111.402 10.7418C111.323 10.6232 111.283 10.4915 111.283 10.3466C111.283 10.0701 111.389 9.85274 111.6 9.69471C111.825 9.53664 112.129 9.45764 112.512 9.45764C113.041 9.45764 113.51 9.59591 113.92 9.8725C114.342 10.1359 114.633 10.4915 114.792 10.9393L116.992 9.91202C116.661 9.0164 116.093 8.32495 115.287 7.83764C114.494 7.33716 113.569 7.08691 112.512 7.08691C111.706 7.08691 110.993 7.23178 110.371 7.52154C109.75 7.79812 109.268 8.18667 108.924 8.68716C108.581 9.18764 108.409 9.77374 108.409 10.4454C108.409 11.2093 108.647 11.8744 109.123 12.4408C109.598 12.9939 110.279 13.3957 111.164 13.6459L113.008 14.1596C113.246 14.2254 113.444 14.3044 113.602 14.3966C113.761 14.4888 113.88 14.5942 113.959 14.7127C114.038 14.8181 114.078 14.9498 114.078 15.1078C114.078 15.4108 113.966 15.6478 113.741 15.8191C113.516 15.9903 113.193 16.0759 112.77 16.0759C112.188 16.0759 111.66 15.9113 111.184 15.582C110.708 15.2527 110.332 14.7983 110.054 14.2188L107.874 15.2461C108.191 16.1944 108.786 16.9517 109.658 17.5181Z" fill="white"/>
<path d="M129.405 18.1108V7.32398H132.18V8.62705C132.383 8.23278 132.667 7.91698 133.033 7.6796C133.641 7.28447 134.367 7.08691 135.213 7.08691C136.112 7.08691 136.898 7.3174 137.572 7.77836C137.973 8.03957 138.286 8.35457 138.511 8.72333C138.798 8.30605 139.139 7.97129 139.534 7.71909C140.195 7.29764 140.968 7.08691 141.853 7.08691C142.633 7.08691 143.32 7.25812 143.915 7.60057C144.522 7.94302 144.998 8.42374 145.342 9.04274C145.685 9.6486 145.857 10.3598 145.857 11.1764V18.1108H142.884V11.8086C142.884 11.3871 142.805 11.0249 142.646 10.722C142.501 10.4191 142.289 10.182 142.012 10.0108C141.734 9.83957 141.397 9.75398 141.001 9.75398C140.618 9.75398 140.281 9.83957 139.99 10.0108C139.712 10.182 139.494 10.4191 139.336 10.722C139.191 11.0249 139.118 11.3871 139.118 11.8086V18.1108H136.145V11.8086C136.145 11.3871 136.065 11.0249 135.907 10.722C135.761 10.4191 135.55 10.182 135.273 10.0108C134.995 9.83957 134.658 9.75398 134.262 9.75398C133.878 9.75398 133.541 9.83957 133.251 10.0108C132.973 10.182 132.755 10.4191 132.597 10.722C132.451 11.0249 132.379 11.3871 132.379 11.8086V18.1108H129.405Z" fill="white"/>
<path d="M122.019 18.3481C121.147 18.3481 120.401 18.1637 119.78 17.7949C119.172 17.4129 118.709 16.8861 118.392 16.2144C118.075 15.5427 117.917 14.759 117.917 13.8635V7.32422H120.89V13.6264C120.89 14.0347 120.969 14.3969 121.127 14.713C121.299 15.0159 121.537 15.2529 121.841 15.4242C122.145 15.5954 122.489 15.681 122.872 15.681C123.268 15.681 123.612 15.5954 123.903 15.4242C124.206 15.2529 124.438 15.0159 124.596 14.713C124.768 14.3969 124.854 14.0347 124.854 13.6264V7.32422H127.827V18.111H125.052V16.7983C124.8 17.2719 124.443 17.637 123.982 17.8937C123.427 18.1966 122.773 18.3481 122.019 18.3481Z" fill="white"/>
<path fill-rule="evenodd" clip-rule="evenodd" d="M84.2865 18.3478C83.2164 18.3478 82.2383 18.1042 81.353 17.6168C80.4808 17.1295 79.7806 16.4644 79.2519 15.6215C78.7368 14.7654 78.479 13.7974 78.479 12.7174C78.479 11.6242 78.7368 10.6562 79.2519 9.81322C79.7806 8.97033 80.4808 8.30519 81.353 7.81788C82.2383 7.33057 83.2164 7.08691 84.2865 7.08691C85.3569 7.08691 86.3284 7.33057 87.2003 7.81788C88.0725 8.30519 88.7665 8.97033 89.2816 9.81322C89.8103 10.6562 90.0746 11.6242 90.0746 12.7174C90.0746 13.7974 89.8103 14.7654 89.2816 15.6215C88.7665 16.4644 88.0725 17.1295 87.2003 17.6168C86.3284 18.1042 85.3569 18.3478 84.2865 18.3478ZM84.2865 15.6808C84.8283 15.6808 85.2974 15.5556 85.6939 15.3054C86.1035 15.0552 86.4208 14.7062 86.6453 14.2583C86.8833 13.8105 87.0024 13.2969 87.0024 12.7174C87.0024 12.1378 86.8833 11.6308 86.6453 11.1962C86.4208 10.7484 86.1035 10.3993 85.6939 10.1491C85.2974 9.88567 84.8283 9.75398 84.2865 9.75398C83.7447 9.75398 83.269 9.88567 82.8593 10.1491C82.4497 10.3993 82.1262 10.7484 81.8882 11.1962C81.6637 11.6308 81.5512 12.1378 81.5512 12.7174C81.5512 13.2969 81.6637 13.8105 81.8882 14.2583C82.1262 14.7062 82.4497 15.0552 82.8593 15.3054C83.269 15.5556 83.7447 15.6808 84.2865 15.6808Z" fill="white"/>
<path fill-rule="evenodd" clip-rule="evenodd" d="M69.6495 22.0422C70.3629 22.3188 71.1361 22.4571 71.9685 22.4571C73.0123 22.4571 73.9309 22.2464 74.7235 21.8249C75.5296 21.4034 76.1641 20.8173 76.6267 20.0666C77.0889 19.3291 77.3204 18.4861 77.3204 17.5378V7.32398H74.5453V8.45695C74.2187 8.07509 73.8485 7.77647 73.4351 7.56105C72.8539 7.24495 72.1733 7.08691 71.3935 7.08691C70.4027 7.08691 69.5173 7.31081 68.7375 7.7586C67.958 8.20643 67.3436 8.82543 66.8942 9.61567C66.4447 10.3927 66.2202 11.2884 66.2202 12.3025C66.2202 13.3166 66.4447 14.2254 66.8942 15.0288C67.3436 15.8191 67.9646 16.4447 68.7572 16.9056C69.5502 17.3534 70.4487 17.5774 71.453 17.5774C72.2329 17.5774 72.9134 17.4325 73.4946 17.1427C73.8098 16.9785 74.0938 16.7698 74.3471 16.5166V17.5378C74.3471 17.9988 74.2478 18.4005 74.0499 18.7429C73.8648 19.0854 73.5939 19.3422 73.2372 19.5134C72.8802 19.6978 72.4574 19.79 71.9685 19.79C71.3475 19.79 70.8123 19.6452 70.3629 19.3554C69.9135 19.0656 69.6163 18.6705 69.471 18.17L66.7156 19.1381C66.9405 19.8098 67.3038 20.3893 67.8058 20.8766C68.3213 21.3771 68.9357 21.7656 69.6495 22.0422ZM73.1777 14.5744C72.8075 14.7852 72.3716 14.8905 71.8692 14.8905C71.3672 14.8905 70.9178 14.7852 70.5213 14.5744C70.1383 14.3505 69.8342 14.0476 69.6097 13.6657C69.3983 13.2837 69.2924 12.8425 69.2924 12.342C69.2924 11.8284 69.3983 11.3805 69.6097 10.9986C69.8342 10.6035 70.1383 10.3006 70.5213 10.0898C70.9178 9.86591 71.3672 9.75398 71.8692 9.75398C72.3584 9.75398 72.7878 9.86591 73.1576 10.0898C73.5278 10.3006 73.8184 10.6035 74.0298 10.9986C74.2412 11.3805 74.3471 11.8284 74.3471 12.342C74.3471 12.8557 74.2412 13.3035 74.0298 13.6854C73.8316 14.0674 73.5475 14.3637 73.1777 14.5744Z" fill="white"/>
<path fill-rule="evenodd" clip-rule="evenodd" d="M59.7116 18.3478C58.6412 18.3478 57.6635 18.1042 56.7781 17.6168C55.9059 17.1295 55.2057 16.4644 54.6771 15.6215C54.1616 14.7654 53.9038 13.7974 53.9038 12.7174C53.9038 11.6242 54.1616 10.6562 54.6771 9.81322C55.2057 8.97033 55.9059 8.30519 56.7781 7.81788C57.6635 7.33057 58.6412 7.08691 59.7116 7.08691C60.7821 7.08691 61.7532 7.33057 62.6254 7.81788C63.4976 8.30519 64.1913 8.97033 64.7068 9.81322C65.2354 10.6562 65.4994 11.6242 65.4994 12.7174C65.4994 13.7974 65.2354 14.7654 64.7068 15.6215C64.1913 16.4644 63.4976 17.1295 62.6254 17.6168C61.7532 18.1042 60.7821 18.3478 59.7116 18.3478ZM59.7116 15.6808C60.2534 15.6808 60.7226 15.5556 61.119 15.3054C61.5287 15.0552 61.8459 14.7062 62.0705 14.2583C62.3081 13.8105 62.4272 13.2969 62.4272 12.7174C62.4272 12.1378 62.3081 11.6308 62.0705 11.1962C61.8459 10.7484 61.5287 10.3993 61.119 10.1491C60.7226 9.88567 60.2534 9.75398 59.7116 9.75398C59.1698 9.75398 58.6941 9.88567 58.2845 10.1491C57.8749 10.3993 57.551 10.7484 57.3134 11.1962C57.0885 11.6308 56.9764 12.1378 56.9764 12.7174C56.9764 13.2969 57.0885 13.8105 57.3134 14.2583C57.551 14.7062 57.8749 15.0552 58.2845 15.3054C58.6941 15.5556 59.1698 15.6808 59.7116 15.6808Z" fill="white"/>
<path d="M46.5085 35.3498C47.1727 35.7139 47.9422 35.896 48.8168 35.896C49.7025 35.896 50.4719 35.7139 51.1251 35.3498C51.7894 34.9857 52.3042 34.4891 52.6695 33.86C53.0349 33.22 53.2175 32.4917 53.2175 31.6752V23.3662H51.889V31.6752C51.889 32.271 51.7561 32.7952 51.4904 33.2476C51.2358 33.689 50.876 34.0366 50.411 34.2903C49.9571 34.5332 49.4257 34.6546 48.8168 34.6546C48.2079 34.6546 47.6709 34.5332 47.2059 34.2903C46.752 34.0366 46.3922 33.689 46.1265 33.2476C45.8719 32.7952 45.7445 32.271 45.7445 31.6752V23.3662H44.416V31.6752C44.416 32.4917 44.5987 33.22 44.964 33.86C45.3294 34.4891 45.8442 34.9857 46.5085 35.3498Z" fill="white"/>
<path d="M64.4346 26.8252V35.6971H65.6801V26.8252H64.4346Z" fill="white"/>
<path d="M64.4346 23.3662V25.1869H65.6801V23.3662H64.4346Z" fill="white"/>
<path d="M98.4326 35.6971V26.8252H99.6781V35.6971H98.4326Z" fill="white"/>
<path d="M98.4326 25.1869V23.3662H99.6781V25.1869H98.4326Z" fill="white"/>
<path d="M103.29 35.1019C103.722 35.5653 104.336 35.797 105.134 35.797C105.233 35.797 105.366 35.786 105.532 35.7639C105.698 35.7529 105.848 35.7308 105.981 35.6977V34.5887C105.892 34.5998 105.787 34.6108 105.665 34.6219C105.543 34.6329 105.438 34.6384 105.349 34.6384C104.984 34.6384 104.691 34.5722 104.469 34.4396C104.259 34.3072 104.11 34.1307 104.021 33.91C103.932 33.6783 103.888 33.4134 103.888 33.1155V28.0672H105.848V26.8259H103.888V24.7734H102.643V25.5183C102.643 25.8934 102.532 26.2079 102.31 26.4617C102.089 26.7045 101.79 26.8259 101.414 26.8259H100.999V28.0672H102.643V33.1155C102.643 33.9762 102.858 34.6384 103.29 35.1019Z" fill="white"/>
<path d="M107.304 39.2888C107.492 39.3219 107.675 39.3384 107.852 39.3384C108.439 39.3384 108.937 39.2171 109.347 38.9743C109.756 38.7426 110.094 38.4336 110.36 38.0474C110.636 37.6612 110.863 37.2529 111.04 36.8226L115.109 26.8252H113.731L110.832 34.1486L107.918 26.8252H106.573L110.133 35.7036L109.812 36.4584C109.535 37.0984 109.252 37.5288 108.965 37.7495C108.677 37.9812 108.262 38.0971 107.719 38.0971C107.542 38.0971 107.365 38.0805 107.188 38.0474C107.022 38.0253 106.883 38.0088 106.773 37.9977V39.1564C106.95 39.2226 107.127 39.2667 107.304 39.2888Z" fill="white"/>
<path d="M91.3285 35.2505C91.9707 35.6809 92.718 35.8961 93.5704 35.8961C94.1904 35.8961 94.7384 35.7912 95.2145 35.5816C95.6906 35.3609 96.0614 35.0574 96.3271 34.6712C96.6039 34.2849 96.7423 33.849 96.7423 33.3635C96.7423 32.7676 96.5375 32.249 96.1279 31.8076C95.7293 31.3663 95.1702 31.0407 94.4506 30.8311L92.9726 30.4007C92.8176 30.3566 92.6349 30.2904 92.4246 30.2021C92.2253 30.1139 92.0482 29.9814 91.8932 29.8049C91.7382 29.6283 91.6607 29.3911 91.6607 29.0932C91.6607 28.707 91.8101 28.387 92.1091 28.1332C92.408 27.8794 92.8065 27.7525 93.3047 27.7525C93.814 27.7525 94.2735 27.8959 94.6831 28.1828C95.1038 28.4587 95.4249 28.8449 95.6463 29.3414L96.7091 28.8449C96.4545 28.1497 96.0172 27.609 95.3972 27.2228C94.7883 26.8256 94.1074 26.627 93.3546 26.627C92.801 26.627 92.2973 26.7318 91.8434 26.9414C91.3894 27.1511 91.0296 27.449 90.7639 27.8352C90.4982 28.2214 90.3654 28.6739 90.3654 29.1925C90.3654 29.7442 90.548 30.2297 90.9134 30.649C91.2787 31.0683 91.871 31.3939 92.6903 31.6256L93.969 31.9897C94.1461 32.0339 94.351 32.1056 94.5835 32.2049C94.8159 32.3042 95.0208 32.4476 95.1979 32.6352C95.375 32.8118 95.4636 33.0545 95.4636 33.3635C95.4636 33.7828 95.2809 34.1249 94.9156 34.3897C94.5502 34.6436 94.1019 34.7705 93.5704 34.7705C93.0169 34.7705 92.5076 34.6105 92.0426 34.2904C91.5887 33.9704 91.2344 33.5401 90.9798 32.9994L89.9336 33.4959C90.2214 34.2352 90.6864 34.8202 91.3285 35.2505Z" fill="white"/>
<path d="M85.3687 35.6977V26.8258H86.6142V27.7857C86.8127 27.4969 87.0729 27.2597 87.3947 27.0741C87.8264 26.8313 88.3468 26.71 88.9557 26.71H89.5203V27.9513H88.7398C88.0977 27.9513 87.5829 28.15 87.1954 28.5472C86.8079 28.9444 86.6142 29.5072 86.6142 30.2355V35.6977H85.3687Z" fill="white"/>
<path fill-rule="evenodd" clip-rule="evenodd" d="M77.4435 35.3002C78.1189 35.6974 78.8717 35.8961 79.702 35.8961C80.3109 35.8961 80.8645 35.7967 81.3627 35.5981C81.872 35.3885 82.3093 35.1181 82.6746 34.7871C83.04 34.4449 83.3112 34.0752 83.4883 33.678L82.4255 33.1152C82.1487 33.5787 81.7889 33.9649 81.3461 34.2739C80.9032 34.583 80.3552 34.7374 79.702 34.7374C79.1374 34.7374 78.606 34.594 78.1078 34.307C77.6207 34.0201 77.2332 33.6173 76.9453 33.0987C76.7215 32.6708 76.6063 32.1853 76.5997 31.6421H83.6046C83.6267 31.4987 83.6433 31.3607 83.6544 31.2283C83.6655 31.0849 83.671 30.958 83.671 30.8476C83.671 30.318 83.5769 29.8049 83.3887 29.3083C83.2005 28.8007 82.9293 28.3483 82.575 27.9511C82.2207 27.5428 81.7889 27.2228 81.2797 26.9911C80.7815 26.7483 80.2113 26.627 79.5692 26.627C78.761 26.627 78.0303 26.8256 77.3771 27.2228C76.735 27.6201 76.2257 28.1663 75.8493 28.8614C75.4729 29.5456 75.2847 30.3345 75.2847 31.2283C75.2847 32.1221 75.4784 32.9221 75.8659 33.6283C76.2534 34.3345 76.7793 34.8919 77.4435 35.3002ZM82.3359 30.4835H76.6194C76.6606 30.0922 76.7637 29.7391 76.9287 29.4242C77.1944 28.9056 77.5598 28.5028 78.0248 28.2159C78.5008 27.929 79.0156 27.7856 79.5692 27.7856C80.1227 27.7856 80.6209 27.929 81.0638 28.2159C81.5066 28.4918 81.8443 28.8725 82.0768 29.358C82.2518 29.699 82.338 30.0742 82.3359 30.4835Z" fill="white"/>
<path d="M70.106 35.6971L66.6353 26.8252H68.0302L70.7295 34.0095L73.444 26.8252H74.8555L71.3515 35.6971H70.106Z" fill="white"/>
<path d="M55.4131 35.6974V26.8256H56.6586V27.9245C56.8658 27.606 57.1315 27.3391 57.4557 27.1235C57.965 26.7925 58.5517 26.627 59.216 26.627C59.8471 26.627 60.4117 26.7704 60.9099 27.0573C61.4192 27.3442 61.8177 27.7414 62.1056 28.249C62.4045 28.7456 62.5539 29.3083 62.5539 29.9373V35.6974H61.3084V30.4173C61.3084 29.8766 61.2088 29.4187 61.0095 29.0435C60.8213 28.6683 60.5501 28.3814 60.1958 28.1828C59.8526 27.9732 59.454 27.8683 59.0001 27.8683C58.5462 27.8683 58.1421 27.9732 57.7878 28.1828C57.4336 28.3814 57.1568 28.6738 56.9575 29.0601C56.7582 29.4352 56.6586 29.8876 56.6586 30.4173V35.6974H55.4131Z" fill="white"/>
</g>
<defs>
<clipPath id="clip0_668_41">
<rect width="146" height="40" fill="white"/>
</clipPath>
</defs>
</svg>
