<svg width="168" height="40" viewBox="0 0 168 40" fill="none" xmlns="http://www.w3.org/2000/svg">
<g clip-path="url(#clip0_668_65)">
<path d="M80.4223 0C79.4852 4.12657 79.1154 5.75557 73.5249 6.26504C79.1154 5.75557 78.7455 7.38457 77.8085 11.5112C78.7399 7.40909 79.1154 5.75557 84.618 5.2541C79.1154 5.75557 79.4908 4.10205 80.4223 0Z" fill="white"/>
<path d="M82.8385 10.9481C81.2664 11.9405 79.3578 12.1764 77.5114 12.3939C75.4889 12.6321 73.4868 12.879 71.5077 13.1339C72.0319 10.8272 72.276 9.89253 75.4091 9.607C72.2431 9.89552 72.4591 8.94415 72.995 6.58396C72.4559 8.95826 72.2431 9.89552 69.0266 10.1886C72.2099 9.89855 72.0343 10.8135 71.5077 13.1339C65.5995 13.895 59.8956 14.7279 54.4619 15.6151C60.7575 14.8475 69.5077 14.0996 77.0175 13.4578C79.4553 13.2494 82.7255 12.9918 83.4202 15.3378C83.64 16.08 83.6438 16.9946 83.511 18.0871H80.1881L77.4451 30.9915H84.7451L87.4881 18.0871H83.7839C84.3508 16.3626 85.0589 15.0172 86.2195 13.9798C87.697 12.6593 89.7857 12.3829 91.7621 12.2403C131.931 9.3421 163.557 11.4599 164.077 17.3684C164.226 19.0507 161.837 20.8714 157.42 22.7113V22.718L157.405 22.724V22.7113C159.042 22.019 162.336 20.3032 162.538 18.0871H155.545L152.781 24.4705C152.779 24.4819 152.77 24.4934 152.756 24.5049H152.738L152.746 24.4705C152.733 23.7593 152.714 23.0481 152.689 22.337C152.676 21.6258 152.662 20.9203 152.646 20.2206C152.633 19.5094 152.615 18.7983 152.59 18.0871H143.214L140.471 30.9915H146.892L148.402 23.8855L148.406 23.8683H148.423C148.426 23.8683 148.429 23.8686 148.431 23.8693C148.435 23.8708 148.438 23.8739 148.438 23.8787C148.438 23.88 148.438 23.8815 148.438 23.8831L148.437 23.8855C148.479 25.0669 148.516 26.2484 148.546 27.4299C148.576 28.6114 148.611 29.7986 148.651 30.9915H153.136L156.382 23.8339L156.385 23.8167H156.403C156.41 23.8167 156.414 23.8187 156.416 23.8227C156.417 23.8234 156.417 23.8243 156.417 23.8252V23.8266C156.417 23.8287 156.417 23.8311 156.417 23.8339L154.895 30.9915H161.668L164.089 19.6004C166.552 18.1023 167.812 16.6539 167.665 15.3087C166.963 8.85577 134.133 7.04723 92.464 10.8333C92.3855 10.8405 92.3061 10.8478 92.2262 10.8552L92.2154 10.8562C90.2526 11.0378 87.8955 11.2558 86.8965 9.59985C85.9371 8.00965 86.5493 5.3135 87.429 1.43945C86.35 6.191 85.6767 9.15656 82.8385 10.9481Z" fill="white"/>
<path fill-rule="evenodd" clip-rule="evenodd" d="M55.264 18.3274C54.011 17.8227 52.3407 17.5703 50.2534 17.5703C49.2566 17.5703 48.3285 17.6334 47.469 17.7596C46.6213 17.8857 45.8376 18.0693 45.118 18.3102C44.3984 18.5511 43.7452 18.8378 43.1585 19.1705C42.586 19.4916 42.0682 19.8587 41.6052 20.2716C41.1446 20.6731 40.7412 21.109 40.395 21.5793C40.0629 22.0381 39.7846 22.5199 39.56 23.0246C39.3497 23.5178 39.1884 24.0283 39.0762 24.5559C38.9397 25.1983 38.8842 25.8177 38.9099 26.4142C38.9381 26.9992 39.0438 27.5498 39.2273 28.0659C39.4249 28.5706 39.7026 29.0295 40.0605 29.4424C40.4301 29.8554 40.8822 30.2109 41.4168 30.5092C41.954 30.7959 42.5749 31.0196 43.2795 31.1802C43.9959 31.3408 44.7997 31.4211 45.691 31.4211C46.1014 31.4211 46.4569 31.4039 46.7574 31.3695C47.0671 31.3465 47.3864 31.3064 47.7152 31.249C48.0467 30.5723 48.3794 29.8898 48.7133 29.2015C49.0614 28.5018 49.4025 27.8078 49.7363 27.1196C49.8315 26.9234 49.9266 26.7277 50.0216 26.5324C50.1099 26.3509 50.1982 26.1697 50.2863 25.9889C50.436 25.6822 50.5853 25.3766 50.7344 25.0721L49.4764 30.9909H56.9347L58.1928 25.0721H50.7344L58.7065 23.3171C58.7505 22.2274 58.5004 21.2524 57.9562 20.3921C57.4144 19.5203 56.517 18.8321 55.264 18.3274ZM50.7344 25.0721C50.5426 25.313 50.2677 25.5022 49.9101 25.6399C49.555 25.7661 49.0784 25.8292 48.4803 25.8292C48.0933 25.8292 47.7676 25.789 47.5033 25.7087C47.2389 25.6284 47.0334 25.5195 46.8867 25.3818C46.7401 25.2442 46.6428 25.095 46.5948 24.9345C46.5493 24.7624 46.546 24.5846 46.585 24.4011C46.6387 24.1487 46.7532 23.9136 46.9285 23.6956C47.118 23.4662 47.3869 23.2769 47.7352 23.1278C48.0953 22.9787 48.5508 22.9042 49.102 22.9042C49.6883 22.9042 50.1379 22.9959 50.4507 23.1794C50.7635 23.363 50.9444 23.6153 50.9934 23.9365C51.0424 24.2577 50.9561 24.6362 50.7344 25.0721Z" fill="white"/>
<path d="M71.3052 17.6049C70.9139 17.5818 70.5061 17.5703 70.0818 17.5703C69.003 17.5703 67.995 17.6506 67.0579 17.8112C66.135 17.9603 65.2841 18.184 64.5054 18.4822C63.7291 18.769 63.0273 19.1188 62.4001 19.5318C61.7871 19.9333 61.244 20.3921 60.7707 20.9083C60.3092 21.4244 59.92 21.9865 59.6031 22.5944C59.298 23.2024 59.0735 23.8447 58.9297 24.5215C58.9161 24.5851 58.9034 24.6486 58.8916 24.712C67.2405 24.5408 69.2448 22.507 71.3052 17.6049Z" fill="white"/>
<path d="M58.8918 24.7127C58.8072 25.1639 58.7642 25.6111 58.7627 26.0535C58.7727 26.5583 58.8462 27.04 58.9832 27.4988C59.1319 27.9577 59.3442 28.3935 59.6199 28.8065C59.9099 29.208 60.2716 29.575 60.7051 29.9077C61.1504 30.2403 61.6817 30.5271 62.2989 30.768C62.9186 30.9974 63.6254 31.1752 64.4195 31.3013C64.9067 31.3848 65.4295 31.443 65.9878 31.4758C67.6855 26.5772 67.2261 24.5858 58.8918 24.7127Z" fill="white"/>
<path d="M66.0483 31.4794C66.392 31.4984 66.749 31.5079 67.1193 31.5079C68.5148 31.5079 69.7671 31.3817 70.8762 31.1294C71.9945 30.8885 72.9811 30.5501 73.836 30.1142C74.6934 29.6669 75.4246 29.1507 76.0297 28.5657C76.6373 27.9692 77.1245 27.3326 77.4911 26.6559C77.8602 25.9676 78.1228 25.2564 78.2788 24.5223C78.2899 24.47 78.3005 24.418 78.3104 24.3662C70.0961 24.5356 68.0987 26.5977 66.0483 31.4794Z" fill="white"/>
<path d="M78.3108 24.3662C70.1218 24.4899 69.682 22.4748 71.3669 17.6094C72.9379 17.7073 74.2405 17.9928 75.2745 18.4658C76.5784 19.0623 77.4771 19.8824 77.9706 20.9263C78.4449 21.9297 78.5583 23.0766 78.3108 24.3662Z" fill="white"/>
<path fill-rule="evenodd" clip-rule="evenodd" d="M116.071 23.2389L123.195 22.9214C123.544 22.1069 123.618 21.3728 123.417 20.719C123.216 20.0652 122.773 19.5031 122.087 19.0328C121.413 18.5625 120.528 18.2012 119.432 17.9488C118.349 17.6965 117.085 17.5703 115.643 17.5703C114.623 17.5703 113.63 17.6334 112.665 17.7596C111.712 17.8857 110.817 18.0693 109.98 18.3102C109.155 18.5511 108.41 18.855 107.746 19.2221C107.095 19.5777 106.561 19.9964 106.142 20.4781C105.725 20.9484 105.455 21.4761 105.33 22.0611C105.213 22.6116 105.248 23.1106 105.434 23.558C105.623 23.9938 106.018 24.3724 106.618 24.6936C107.218 25.0147 108.073 25.2671 109.183 25.4506C109.918 25.5643 110.789 25.6404 111.796 25.679L104.513 26.1561C104.231 27.0967 104.217 27.9053 104.472 28.5821C104.739 29.2589 105.236 29.8152 105.964 30.2511C106.695 30.6755 107.625 30.9909 108.753 31.1974C109.882 31.4039 111.162 31.5071 112.593 31.5071C113.883 31.5071 115.105 31.4096 116.261 31.2146C117.426 31.0311 118.469 30.7558 119.392 30.3887C120.328 30.0102 121.089 29.5456 121.676 28.9951C122.276 28.433 122.653 27.7906 122.806 27.068C122.948 26.4027 122.917 25.8292 122.715 25.3474C122.515 24.8541 122.096 24.4527 121.458 24.143C120.823 23.8218 119.929 23.5866 118.776 23.4375C118.009 23.3383 117.107 23.2721 116.071 23.2389ZM115.87 23.2329C115.409 23.2202 114.921 23.2139 114.408 23.2139H113.969C113.652 23.2139 113.398 23.1966 113.205 23.1622C113.025 23.1278 112.897 23.0705 112.82 22.9902C112.746 22.8984 112.723 22.7837 112.752 22.6461C112.777 22.5314 112.835 22.4224 112.927 22.3191C113.031 22.2159 113.155 22.1299 113.299 22.0611C113.457 21.9808 113.633 21.9234 113.828 21.889C114.025 21.8431 114.241 21.8202 114.476 21.8202C114.851 21.8202 115.174 21.8718 115.446 21.975C115.731 22.0668 115.921 22.2217 116.015 22.4396C116.111 22.6429 116.062 22.9073 115.87 23.2329ZM112.114 25.6898C111.961 26.0194 111.928 26.2953 112.017 26.5174C112.121 26.7468 112.319 26.9189 112.611 27.0336C112.904 27.1483 113.243 27.2056 113.63 27.2056C113.865 27.2056 114.079 27.1884 114.274 27.154C114.481 27.1196 114.668 27.068 114.835 26.9992C115.002 26.9303 115.138 26.8443 115.242 26.7411C115.348 26.6264 115.416 26.5002 115.445 26.3625C115.504 26.0872 115.395 25.9094 115.119 25.8292C114.855 25.7489 114.447 25.7087 113.896 25.7087H113.456C112.986 25.7087 112.539 25.7024 112.114 25.6898Z" fill="white"/>
<path d="M132.58 18.0869H125.28L123.55 26.2253C123.402 26.925 123.425 27.5616 123.619 28.1352C123.817 28.6972 124.146 29.1904 124.607 29.6149C125.082 30.0278 125.652 30.3777 126.319 30.6644C126.996 30.9512 127.737 31.1634 128.54 31.301C129.355 31.4387 130.191 31.5075 131.047 31.5075C132.126 31.5075 133.199 31.3985 134.265 31.1806C135.343 30.9627 136.339 30.6357 137.253 30.1999C138.169 29.7525 138.937 29.2019 139.557 28.5481C140.19 27.8828 140.601 27.1085 140.789 26.2253L142.519 18.0869H135.219L133.774 24.8832C133.704 25.2159 133.515 25.4682 133.209 25.6403C132.903 25.8123 132.579 25.8984 132.239 25.8984C132.075 25.8984 131.916 25.8754 131.761 25.8296C131.619 25.7837 131.491 25.7206 131.379 25.6403C131.282 25.5485 131.205 25.4395 131.15 25.3134C131.106 25.1872 131.103 25.0381 131.139 24.866L132.58 18.0869Z" fill="white"/>
<path fill-rule="evenodd" clip-rule="evenodd" d="M99.3278 18.0869C100.418 18.0869 101.337 18.236 102.082 18.5342C102.842 18.821 103.432 19.2167 103.853 19.7215C104.287 20.2147 104.573 20.7767 104.708 21.4076C104.844 22.0385 104.84 22.6923 104.696 23.3691C104.542 24.0917 104.255 24.78 103.835 25.4338C103.429 26.0762 102.896 26.6497 102.238 27.1544C101.591 27.6591 100.831 28.0606 99.9589 28.3588C99.0888 28.6456 98.1201 28.789 97.053 28.789H93.2711L93.2499 28.8062H93.2323L93.2286 28.8234L92.7678 30.9913H85.4502L88.1931 18.0869H99.3278ZM95.683 25.0553C96.0349 25.0553 96.3402 24.9979 96.5991 24.8832C96.8722 24.757 97.0869 24.6022 97.2432 24.4187C97.4019 24.2237 97.502 24.0287 97.5434 23.8337C97.5873 23.6272 97.5689 23.4379 97.4882 23.2659C97.41 23.0823 97.2657 22.9332 97.0556 22.8185C96.8454 22.7038 96.5586 22.6465 96.1951 22.6465H94.5768C94.565 22.6465 94.552 22.6522 94.5379 22.6637L94.5342 22.6809L94.0332 25.0381C94.0449 25.0381 94.0496 25.0438 94.0471 25.0553H95.683Z" fill="white"/>
<path fill-rule="evenodd" clip-rule="evenodd" d="M11.7828 25.9328L11.7901 25.8984L13.4505 18.0869H6.15051L3.7999 29.1455C1.19765 30.6888 -0.13916 32.1813 0.0114694 33.5645C0.769477 40.5256 38.9146 42.082 85.2109 37.0408C93.9828 36.0856 102.418 34.9621 110.324 33.721C106.134 34.0959 101.67 34.4751 97.0945 34.8638L97.0891 34.8642L97.0806 34.865L97.0749 34.8654L97.069 34.8659L97.0567 34.867C93.0374 35.2084 88.9321 35.5571 84.8498 35.9167C40.5351 39.8204 4.15823 37.8451 3.59966 31.5048C3.45233 29.832 5.8128 28.0226 10.1819 26.1933C7.06872 27.5631 5.74017 29.355 5.36723 30.9913H17.603L18.6782 25.9328H11.7828ZM9.96399 26.2607C9.89339 26.2887 9.82321 26.3166 9.75351 26.3446C10.0086 26.2445 10.2684 26.1442 10.5325 26.044C10.5739 26.0269 10.6156 26.0099 10.6575 25.993C10.5386 26.0378 10.4209 26.0827 10.3044 26.1277C10.2432 26.1513 10.1823 26.1749 10.1217 26.1986C10.0689 26.2193 10.0163 26.24 9.96399 26.2607Z" fill="white"/>
<path d="M31.7559 17.6049C31.3646 17.5818 30.9569 17.5703 30.5326 17.5703C29.4537 17.5703 28.4457 17.6506 27.5086 17.8112C26.5857 17.9603 25.7349 18.184 24.9561 18.4822C24.1798 18.769 23.4781 19.1188 22.8509 19.5318C22.2378 19.9333 21.6947 20.3921 21.2214 20.9083C20.7599 21.4244 20.3707 21.9865 20.0538 22.5944C19.7487 23.2024 19.5242 23.8447 19.3804 24.5215C19.3734 24.5543 19.3667 24.587 19.3601 24.6197C19.354 24.6505 19.348 24.6813 19.3423 24.712C27.6913 24.5408 29.6955 22.507 31.7559 17.6049Z" fill="white"/>
<path d="M19.342 24.7127C19.2575 25.1639 19.2144 25.6111 19.2129 26.0535C19.2229 26.5583 19.2964 27.04 19.4334 27.4988C19.5821 27.9577 19.7944 28.3935 20.0701 28.8065C20.3601 29.208 20.7218 29.575 21.1553 29.9077C21.6006 30.2403 22.1319 30.5271 22.7491 30.768C23.3688 30.9974 24.0757 31.1752 24.8697 31.3013C25.3569 31.3848 25.8797 31.443 26.438 31.4758C28.1357 26.5772 27.6763 24.5858 19.342 24.7127Z" fill="white"/>
<path d="M26.499 31.4794C26.8427 31.4984 27.1997 31.5079 27.57 31.5079C28.9655 31.5079 30.2178 31.3817 31.3269 31.1294C32.4452 30.8885 33.4318 30.5501 34.2868 30.1142C35.1441 29.6669 35.8753 29.1507 36.4805 28.5657C37.088 27.9692 37.5752 27.3326 37.9418 26.6559C38.3109 25.9676 38.5735 25.2564 38.7295 24.5223C38.7407 24.47 38.7512 24.418 38.7611 24.3662C30.5468 24.5356 28.5494 26.5977 26.499 31.4794Z" fill="white"/>
<path d="M38.7614 24.3662C30.5724 24.4899 30.1327 22.4748 31.8176 17.6094C33.3886 17.7073 34.6911 17.9928 35.7252 18.4658C37.0291 19.0623 37.9277 19.8824 38.4212 20.9263C38.8956 21.9297 39.0089 23.0766 38.7614 24.3662Z" fill="white"/>
<path d="M164.628 30.9912C165.279 30.9912 165.807 30.4633 165.807 29.812C165.807 29.1608 165.279 28.6328 164.628 28.6328C163.976 28.6328 163.449 29.1608 163.449 29.812C163.449 30.4633 163.976 30.9912 164.628 30.9912Z" fill="white"/>
</g>
<defs>
<clipPath id="clip0_668_65">
<rect width="168" height="40" fill="white"/>
</clipPath>
</defs>
</svg>
