<svg width="9" height="14" viewBox="0 0 9 14" fill="none" xmlns="http://www.w3.org/2000/svg">
<g clip-path="url(#clip0_677_8)">
<path d="M5.32959 5.72233H8.32959L7.99626 7.05566H5.32959V13.0557H3.99626V7.05566H1.32959V5.72233H3.99626V4.47433C3.99626 3.28566 4.12026 2.85433 4.35226 2.41966C4.5796 1.9902 4.93079 1.639 5.36026 1.41166C5.79492 1.17966 6.22626 1.05566 7.41492 1.05566C7.76292 1.05566 8.06826 1.08899 8.32959 1.15566V2.38899H7.41492C6.53226 2.38899 6.26359 2.44099 5.98959 2.58766C5.78692 2.69566 5.63626 2.84633 5.52826 3.04899C5.38159 3.32299 5.32959 3.59166 5.32959 4.47433V5.72233Z" fill="white" stroke="white" stroke-width="0.8"/>
</g>
<defs>
<clipPath id="clip0_677_8">
<rect width="9" height="14" fill="white"/>
</clipPath>
</defs>
</svg>
