<svg width="9" height="14" viewBox="0 0 9 14" fill="none"
    xmlns="http://www.w3.org/2000/svg">
    <path d="M5.32959 5.72215H8.32959L7.99626 7.05548H5.32959V13.0555H3.99626V7.05548H1.32959V5.72215H3.99626V4.47415C3.99626 3.28548 4.12026 2.85415 4.35226 2.41948C4.5796 1.99002 4.93079 1.63882 5.36026 1.41148C5.79492 1.17948 6.22626 1.05548 7.41492 1.05548C7.76292 1.05548 8.06826 1.08881 8.32959 1.15548V2.38881H7.41492C6.53226 2.38881 6.26359 2.44081 5.98959 2.58748C5.78692 2.69548 5.63626 2.84615 5.52826 3.04881C5.38159 3.32281 5.32959 3.59148 5.32959 4.47415V5.72215Z" fill="black" stroke="black" stroke-width="0.8" />
</svg>