<svg width="128" height="128" viewBox="0 0 128 128" fill="none" xmlns="http://www.w3.org/2000/svg">
<g clip-path="url(#clip0_681_12)">
<rect width="128" height="128" rx="35" fill="black"/>
<path d="M81.4545 47.6364C81.0606 46.0303 80.4394 44.6212 79.5909 43.4091C78.7424 42.1667 77.6818 41.1212 76.4091 40.2727C75.1667 39.3939 73.7121 38.7424 72.0455 38.3182C70.4091 37.8636 68.6061 37.6364 66.6364 37.6364C62.3939 37.6364 58.7727 38.6515 55.7727 40.6818C52.803 42.7121 50.5303 45.6364 48.9545 49.4545C47.4091 53.2727 46.6364 57.8788 46.6364 63.2727C46.6364 68.7273 47.3788 73.3939 48.8636 77.2727C50.3485 81.1515 52.5606 84.1212 55.5 86.1818C58.4394 88.2424 62.0909 89.2727 66.4545 89.2727C70.303 89.2727 73.5 88.7121 76.0455 87.5909C78.6212 86.4697 80.5455 84.8788 81.8182 82.8182C83.0909 80.7576 83.7273 78.3333 83.7273 75.5455L88.0909 76H66.8182V58H108.091V70.9091C108.091 79.3939 106.288 86.6515 102.682 92.6818C99.1061 98.6818 94.1667 103.288 87.8636 106.5C81.5909 109.682 74.3939 111.273 66.2727 111.273C57.2121 111.273 49.2576 109.348 42.4091 105.5C35.5606 101.652 30.2121 96.1667 26.3636 89.0455C22.5455 81.9242 20.6364 73.4545 20.6364 63.6364C20.6364 55.9394 21.803 49.1212 24.1364 43.1818C26.5 37.2424 29.7727 32.2273 33.9545 28.1364C38.1364 24.0151 42.9697 20.9091 48.4545 18.8182C53.9394 16.697 59.8182 15.6364 66.0909 15.6364C71.6061 15.6364 76.7273 16.4242 81.4545 18C86.2121 19.5455 90.4091 21.7576 94.0455 24.6364C97.7121 27.4848 100.667 30.8636 102.909 34.7727C105.152 38.6818 106.515 42.9697 107 47.6364H81.4545Z" fill="white"/>
</g>
<defs>
<clipPath id="clip0_681_12">
<rect width="128" height="128" rx="35" fill="white"/>
</clipPath>
</defs>
</svg>
