<svg width="95" height="15" viewBox="0 0 95 15" fill="none" xmlns="http://www.w3.org/2000/svg">
<path d="M9.86435 4.7429C9.80587 4.5045 9.71366 4.29534 9.58771 4.11541C9.46177 3.93099 9.30433 3.77581 9.11541 3.64986C8.93099 3.51941 8.71508 3.4227 8.46768 3.35973C8.22479 3.29226 7.95715 3.25852 7.66477 3.25852C7.03504 3.25852 6.49751 3.40921 6.0522 3.71058C5.61139 4.01196 5.27403 4.44602 5.04013 5.01278C4.81072 5.57955 4.69602 6.26326 4.69602 7.06392C4.69602 7.87358 4.80623 8.56629 5.02663 9.14205C5.24704 9.7178 5.5754 10.1586 6.01172 10.4645C6.44804 10.7704 6.99006 10.9233 7.63778 10.9233C8.20904 10.9233 8.68359 10.8401 9.06143 10.6737C9.44377 10.5072 9.7294 10.2711 9.91832 9.9652C10.1072 9.65933 10.2017 9.29948 10.2017 8.88565L10.8494 8.95312H7.69176V6.28125H13.8182V8.19744C13.8182 9.45691 13.5505 10.5342 13.0153 11.4293C12.4845 12.32 11.7513 13.0037 10.8157 13.4805C9.88459 13.9528 8.81629 14.1889 7.6108 14.1889C6.26586 14.1889 5.08511 13.9033 4.06854 13.332C3.05197 12.7608 2.25805 11.9466 1.68679 10.8896C1.12003 9.8325 0.836648 8.57528 0.836648 7.1179C0.836648 5.97538 1.00982 4.9633 1.35618 4.08168C1.70703 3.20005 2.19283 2.45561 2.81357 1.84837C3.4343 1.23662 4.15175 0.775568 4.96591 0.465198C5.78007 0.150331 6.6527 -0.00710279 7.58381 -0.00710279C8.40246 -0.00710279 9.16264 0.109848 9.86435 0.34375C10.5705 0.573153 11.1935 0.901514 11.7333 1.32883C12.2776 1.75166 12.7161 2.2532 13.049 2.83345C13.3819 3.41371 13.5843 4.05019 13.6562 4.7429H9.86435ZM15.5674 14V0.181818H21.5319C22.5574 0.181818 23.4548 0.368489 24.224 0.741832C24.9932 1.11517 25.5914 1.6527 26.0187 2.3544C26.4461 3.05611 26.6597 3.89725 26.6597 4.87784C26.6597 5.86742 26.4393 6.70182 25.9985 7.38104C25.5622 8.06025 24.9482 8.57304 24.1565 8.91939C23.3693 9.26574 22.4495 9.43892 21.3969 9.43892H17.8344V6.52415H20.6412C21.0821 6.52415 21.4577 6.47017 21.768 6.36222C22.0829 6.24976 22.3235 6.07209 22.49 5.82919C22.6609 5.58629 22.7464 5.26918 22.7464 4.87784C22.7464 4.48201 22.6609 4.16039 22.49 3.913C22.3235 3.6611 22.0829 3.47668 21.768 3.35973C21.4577 3.23828 21.0821 3.17756 20.6412 3.17756H19.3188V14H15.5674ZM23.664 7.65767L27.1185 14H23.0432L19.6697 7.65767H23.664ZM31.8483 14H27.8L32.3611 0.181818H37.4889L42.05 14H38.0017L34.979 3.98722H34.871L31.8483 14ZM31.0926 8.5483H38.7034V11.3551H31.0926V8.5483ZM55.3368 0.181818V14H52.2061L47.2132 6.74006H47.1323V14H43.3809V0.181818H46.5655L51.4775 7.41477H51.5854V0.181818H55.3368ZM62.4281 14H57.1113V0.181818H62.3741C63.7955 0.181818 65.0235 0.458451 66.0581 1.01172C67.0971 1.56049 67.8978 2.35215 68.4601 3.38672C69.0268 4.41678 69.3102 5.65151 69.3102 7.09091C69.3102 8.5303 69.0291 9.76728 68.4668 10.8018C67.9045 11.8319 67.1084 12.6236 66.0783 13.1768C65.0482 13.7256 63.8315 14 62.4281 14ZM60.8627 10.8153H62.2931C62.9769 10.8153 63.5594 10.7051 64.0407 10.4847C64.5265 10.2643 64.8953 9.88423 65.1472 9.34446C65.4036 8.80469 65.5318 8.0535 65.5318 7.09091C65.5318 6.12831 65.4013 5.37713 65.1404 4.83736C64.8841 4.29758 64.5062 3.91749 64.0069 3.69709C63.5121 3.47668 62.9049 3.36648 62.1852 3.36648H60.8627V10.8153ZM71.0459 14V0.181818H81.0047V3.20455H74.7973V5.57954H80.4919V8.60227H74.7973V10.9773H80.9777V14H71.0459ZM82.8652 14V0.181818H88.8297C89.8553 0.181818 90.7527 0.368489 91.5218 0.741832C92.291 1.11517 92.8893 1.6527 93.3166 2.3544C93.7439 3.05611 93.9576 3.89725 93.9576 4.87784C93.9576 5.86742 93.7372 6.70182 93.2963 7.38104C92.86 8.06025 92.246 8.57304 91.4544 8.91939C90.6672 9.26574 89.7473 9.43892 88.6948 9.43892H85.1323V6.52415H87.9391C88.3799 6.52415 88.7555 6.47017 89.0659 6.36222C89.3807 6.24976 89.6214 6.07209 89.7878 5.82919C89.9587 5.58629 90.0442 5.26918 90.0442 4.87784C90.0442 4.48201 89.9587 4.16039 89.7878 3.913C89.6214 3.6611 89.3807 3.47668 89.0659 3.35973C88.7555 3.23828 88.3799 3.17756 87.9391 3.17756H86.6167V14H82.8652ZM90.9618 7.65767L94.4164 14H90.3411L86.9675 7.65767H90.9618Z" fill="black"/>
</svg>
