<svg width="13" height="13" viewBox="0 0 13 13" fill="none"
    xmlns="http://www.w3.org/2000/svg">
    <path d="M10.0138 2.10911C9.8692 2.10911 9.72783 2.15199 9.60758 2.23235C9.48733 2.3127 9.39357 2.4269 9.33823 2.56052C9.2829 2.69414 9.26844 2.84117 9.29663 2.98302C9.32483 3.12486 9.39446 3.25516 9.49675 3.35743C9.59905 3.4597 9.72929 3.52934 9.87115 3.55756C10.013 3.58577 10.1601 3.57129 10.2937 3.51594C10.4273 3.4606 10.5415 3.36688 10.6218 3.24662C10.7022 3.12637 10.7451 2.98498 10.7451 2.84036C10.7451 2.64641 10.6681 2.46043 10.5309 2.32328C10.3938 2.18615 10.2078 2.10911 10.0138 2.10911ZM12.817 3.5838C12.8051 3.07819 12.7104 2.57796 12.5366 2.10302C12.3817 1.69664 12.1405 1.32867 11.8298 1.02442C11.528 0.712072 11.1592 0.472433 10.7512 0.32364C10.2775 0.144582 9.77666 0.0477208 9.27039 0.0372339C8.62445 0.000671399 8.41727 0.000671387 6.75977 0.000671387C5.10227 0.000671387 4.89508 0.000671399 4.24914 0.0372339C3.74284 0.0477208 3.24206 0.144582 2.76836 0.32364C2.3611 0.473944 1.99258 0.713372 1.68977 1.02442C1.37742 1.32617 1.13778 1.695 0.988984 2.10302C0.809926 2.57671 0.713065 3.0775 0.702578 3.5838C0.666016 4.22973 0.666016 4.43692 0.666016 6.09442C0.666016 7.75192 0.666016 7.95911 0.702578 8.60505C0.713065 9.11131 0.809926 9.61214 0.988984 10.0858C1.13778 10.4939 1.37742 10.8627 1.68977 11.1644C1.99258 11.4754 2.3611 11.7149 2.76836 11.8652C3.24206 12.0443 3.74284 12.1411 4.24914 12.1516C4.89508 12.1882 5.10227 12.1882 6.75977 12.1882C8.41727 12.1882 8.62445 12.1882 9.27039 12.1516C9.77666 12.1411 10.2775 12.0443 10.7512 11.8652C11.1592 11.7164 11.528 11.4767 11.8298 11.1644C12.1419 10.8613 12.3833 10.493 12.5366 10.0858C12.7104 9.61084 12.8051 9.11067 12.817 8.60505C12.817 7.95911 12.8535 7.75192 12.8535 6.09442C12.8535 4.43692 12.8535 4.22973 12.817 3.5838ZM11.7201 8.53192C11.7156 8.91875 11.6456 9.30201 11.5129 9.66536C11.4156 9.93056 11.2593 10.1702 11.0559 10.3661C10.8582 10.5676 10.6191 10.7235 10.3551 10.8232C9.99173 10.9559 9.60847 11.0259 9.22164 11.0304C8.61227 11.0608 8.3868 11.0669 6.78414 11.0669C5.18148 11.0669 4.95602 11.0669 4.34664 11.0304C3.945 11.0379 3.54507 10.976 3.16445 10.8475C2.91204 10.7428 2.68388 10.5872 2.49414 10.3905C2.29189 10.1948 2.13756 9.95493 2.0432 9.68973C1.89443 9.32118 1.81191 8.92923 1.79945 8.53192C1.79945 7.92255 1.76289 7.69708 1.76289 6.09442C1.76289 4.49177 1.76289 4.2663 1.79945 3.65692C1.80218 3.26147 1.87437 2.86958 2.01273 2.49911C2.12002 2.2419 2.28468 2.01262 2.49414 1.8288C2.67928 1.61928 2.90809 1.45287 3.16445 1.3413C3.5359 1.20726 3.92739 1.1372 4.32227 1.13411C4.93164 1.13411 5.15711 1.09755 6.75977 1.09755C8.36242 1.09755 8.58789 1.09755 9.19727 1.13411C9.5841 1.13855 9.96735 1.2086 10.3307 1.3413C10.6076 1.44407 10.8561 1.61116 11.0559 1.8288C11.2556 2.01598 11.4116 2.24484 11.5129 2.49911C11.6483 2.87018 11.7185 3.26191 11.7201 3.65692C11.7505 4.2663 11.7566 4.49177 11.7566 6.09442C11.7566 7.69708 11.7505 7.92255 11.7201 8.53192ZM6.75977 2.96833C6.14175 2.96953 5.53794 3.15389 5.02466 3.49813C4.51138 3.84236 4.11165 4.33101 3.87598 4.90233C3.64031 5.47366 3.57927 6.10202 3.70058 6.70802C3.82189 7.31402 4.1201 7.87046 4.55753 8.30702C4.99497 8.74366 5.55199 9.04079 6.15822 9.16088C6.76446 9.28105 7.3927 9.21873 7.96357 8.98197C8.53443 8.7452 9.02233 8.34448 9.36553 7.83057C9.70873 7.3166 9.89195 6.71244 9.89195 6.09442C9.89277 5.68316 9.81225 5.2758 9.65503 4.89576C9.49789 4.51572 9.26706 4.17051 8.97602 3.87999C8.6849 3.58946 8.33923 3.35935 7.95889 3.2029C7.57855 3.04644 7.17103 2.96672 6.75977 2.96833ZM6.75977 8.12364C6.35842 8.12364 5.9661 8.00461 5.63239 7.78166C5.29869 7.55868 5.0386 7.24176 4.88501 6.87097C4.73142 6.50018 4.69124 6.09217 4.76954 5.69854C4.84784 5.30491 5.0411 4.94334 5.32489 4.65955C5.60868 4.37576 5.97025 4.1825 6.36388 4.10419C6.75751 4.02589 7.16552 4.06608 7.53631 4.21967C7.90711 4.37325 8.22403 4.63334 8.447 4.96705C8.66995 5.30076 8.78898 5.69308 8.78898 6.09442C8.78898 6.36091 8.7365 6.62477 8.63453 6.87097C8.53256 7.11716 8.38307 7.34087 8.19464 7.5293C8.00621 7.71772 7.78251 7.86722 7.53631 7.96918C7.29012 8.07115 7.02625 8.12364 6.75977 8.12364Z" fill="black" />
</svg>