<svg width="13" height="13" viewBox="0 0 13 13" fill="none" xmlns="http://www.w3.org/2000/svg">
<g clip-path="url(#clip0_677_6)">
<path d="M10.0138 2.10942C9.8692 2.10942 9.72783 2.1523 9.60758 2.23266C9.48733 2.31301 9.39357 2.42721 9.33823 2.56083C9.2829 2.69445 9.26844 2.84148 9.29663 2.98333C9.32483 3.12517 9.39446 3.25547 9.49675 3.35774C9.59905 3.46001 9.72929 3.52965 9.87115 3.55787C10.013 3.58608 10.1601 3.5716 10.2937 3.51625C10.4273 3.46091 10.5415 3.36719 10.6218 3.24693C10.7022 3.12668 10.7451 2.98529 10.7451 2.84067C10.7451 2.64672 10.6681 2.46074 10.5309 2.32359C10.3938 2.18646 10.2078 2.10942 10.0138 2.10942ZM12.817 3.58411C12.8051 3.0785 12.7104 2.57827 12.5366 2.10333C12.3817 1.69695 12.1405 1.32898 11.8298 1.02473C11.528 0.712377 11.1592 0.472738 10.7512 0.323945C10.2775 0.144887 9.77666 0.048026 9.27039 0.0375391C8.62445 0.000976574 8.41727 0.000976562 6.75977 0.000976562C5.10227 0.000976562 4.89508 0.000976574 4.24914 0.0375391C3.74284 0.048026 3.24206 0.144887 2.76836 0.323945C2.3611 0.474249 1.99258 0.713677 1.68977 1.02473C1.37742 1.32648 1.13778 1.69531 0.988984 2.10333C0.809926 2.57702 0.713065 3.07781 0.702578 3.58411C0.666016 4.23004 0.666016 4.43723 0.666016 6.09473C0.666016 7.75223 0.666016 7.95942 0.702578 8.60536C0.713065 9.11162 0.809926 9.61245 0.988984 10.0861C1.13778 10.4942 1.37742 10.863 1.68977 11.1647C1.99258 11.4757 2.3611 11.7152 2.76836 11.8655C3.24206 12.0446 3.74284 12.1414 4.24914 12.1519C4.89508 12.1885 5.10227 12.1885 6.75977 12.1885C8.41727 12.1885 8.62445 12.1885 9.27039 12.1519C9.77666 12.1414 10.2775 12.0446 10.7512 11.8655C11.1592 11.7167 11.528 11.477 11.8298 11.1647C12.1419 10.8616 12.3833 10.4933 12.5366 10.0861C12.7104 9.61115 12.8051 9.11098 12.817 8.60536C12.817 7.95942 12.8535 7.75223 12.8535 6.09473C12.8535 4.43723 12.8535 4.23004 12.817 3.58411ZM11.7201 8.53223C11.7156 8.91906 11.6456 9.30232 11.5129 9.66567C11.4156 9.93087 11.2593 10.1705 11.0559 10.3664C10.8582 10.5679 10.6191 10.7238 10.3551 10.8235C9.99173 10.9562 9.60847 11.0262 9.22164 11.0307C8.61227 11.0611 8.3868 11.0672 6.78414 11.0672C5.18148 11.0672 4.95602 11.0672 4.34664 11.0307C3.945 11.0382 3.54507 10.9763 3.16445 10.8478C2.91204 10.7431 2.68388 10.5875 2.49414 10.3908C2.29189 10.1951 2.13756 9.95523 2.0432 9.69003C1.89443 9.32148 1.81191 8.92954 1.79945 8.53223C1.79945 7.92286 1.76289 7.69739 1.76289 6.09473C1.76289 4.49208 1.76289 4.26661 1.79945 3.65723C1.80218 3.26178 1.87437 2.86989 2.01273 2.49942C2.12002 2.24221 2.28468 2.01293 2.49414 1.82911C2.67928 1.61959 2.90809 1.45318 3.16445 1.34161C3.5359 1.20757 3.92739 1.13751 4.32227 1.13442C4.93164 1.13442 5.15711 1.09786 6.75977 1.09786C8.36242 1.09786 8.58789 1.09786 9.19727 1.13442C9.5841 1.13886 9.96735 1.20891 10.3307 1.34161C10.6076 1.44438 10.8561 1.61147 11.0559 1.82911C11.2556 2.01629 11.4116 2.24515 11.5129 2.49942C11.6483 2.87049 11.7185 3.26222 11.7201 3.65723C11.7505 4.26661 11.7566 4.49208 11.7566 6.09473C11.7566 7.69739 11.7505 7.92286 11.7201 8.53223ZM6.75977 2.96864C6.14175 2.96984 5.53794 3.1542 5.02466 3.49844C4.51138 3.84267 4.11165 4.33132 3.87598 4.90264C3.64031 5.47397 3.57927 6.10233 3.70058 6.70833C3.82189 7.31433 4.1201 7.87077 4.55753 8.30733C4.99497 8.74397 5.55199 9.0411 6.15822 9.16119C6.76446 9.28136 7.3927 9.21904 7.96357 8.98228C8.53443 8.74551 9.02233 8.34479 9.36553 7.83088C9.70873 7.31691 9.89195 6.71275 9.89195 6.09473C9.89277 5.68347 9.81225 5.27611 9.65503 4.89607C9.49789 4.51603 9.26706 4.17082 8.97602 3.8803C8.6849 3.58977 8.33923 3.35966 7.95889 3.20321C7.57855 3.04675 7.17103 2.96703 6.75977 2.96864ZM6.75977 8.12395C6.35842 8.12395 5.9661 8.00492 5.63239 7.78197C5.29869 7.55899 5.0386 7.24206 4.88501 6.87127C4.73142 6.50048 4.69124 6.09248 4.76954 5.69885C4.84784 5.30522 5.0411 4.94365 5.32489 4.65986C5.60868 4.37607 5.97025 4.18281 6.36388 4.1045C6.75751 4.0262 7.16552 4.06639 7.53631 4.21997C7.90711 4.37355 8.22403 4.63365 8.447 4.96736C8.66995 5.30107 8.78898 5.69339 8.78898 6.09473C8.78898 6.36122 8.7365 6.62507 8.63453 6.87127C8.53256 7.11746 8.38307 7.34118 8.19464 7.52961C8.00621 7.71803 7.78251 7.86753 7.53631 7.96949C7.29012 8.07146 7.02625 8.12395 6.75977 8.12395Z" fill="white"/>
</g>
<defs>
<clipPath id="clip0_677_6">
<rect width="13" height="13" fill="white"/>
</clipPath>
</defs>
</svg>
