<svg width="12" height="12" viewBox="0 0 12 12" fill="none" xmlns="http://www.w3.org/2000/svg">
<g clip-path="url(#clip0_677_10)">
<path d="M5.82857 4.14858C6.45737 3.50607 7.2761 3.08572 8.22856 3.08572C9.22883 3.08572 10.1881 3.48306 10.8953 4.19034C11.6027 4.89762 12 5.85691 12 6.85715V12H10.6286V6.85715C10.6286 6.22063 10.3757 5.61019 9.92558 5.1601C9.4755 4.71 8.86508 4.45715 8.22856 4.45715C7.59203 4.45715 6.98159 4.71 6.53151 5.1601C6.08142 5.61019 5.82857 6.22063 5.82857 6.85715V12H4.45714V3.42857H5.82857V4.14858ZM1.02857 2.05715C0.755776 2.05715 0.494156 1.94878 0.301261 1.75589C0.108367 1.56299 0 1.30137 0 1.02857C0 0.755781 0.108367 0.494157 0.301261 0.301262C0.494156 0.108367 0.755776 0 1.02857 0C1.30136 0 1.56298 0.108367 1.75588 0.301262C1.94878 0.494157 2.05714 0.755781 2.05714 1.02857C2.05714 1.30137 1.94878 1.56299 1.75588 1.75589C1.56298 1.94878 1.30136 2.05715 1.02857 2.05715ZM0.342857 3.42857H1.71428V12H0.342857V3.42857Z" fill="white"/>
</g>
<defs>
<clipPath id="clip0_677_10">
<rect width="12" height="12" fill="white"/>
</clipPath>
</defs>
</svg>
